HIERARCHY
ROOT Hips
{
	OFFSET 0.053599 88.859886 3.107447
	CHANNELS 6 Xposition Yposition Zposition Zrotation Yrotation Xrotation 
	JOINT Spine
	{
		OFFSET -0.000000 8.814246 -2.080107
		CHANNELS 3 Zrotation Yrotation Xrotation
		JOINT Spine1
		{
			OFFSET 0.000000 8.844141 0.000000
			CHANNELS 3 Zrotation Yrotation Xrotation
			JOINT Spine2
			{
				OFFSET -0.000000 11.682268 0.000000
				CHANNELS 3 Zrotation Yrotation Xrotation
				JOINT Spine3
				{
					OFFSET 0.000000 11.746700 0.000000
					CHANNELS 3 Zrotation Yrotation Xrotation
					JOINT Neck
					{
						OFFSET -0.000000 17.658264 -0.000000
						CHANNELS 3 Zrotation Yrotation Xrotation
						JOINT Neck1
						{
							OFFSET -0.000000 5.101515 -0.000000
							CHANNELS 3 Zrotation Yrotation Xrotation
							JOINT Head
							{
								OFFSET 0.000000 5.101515 0.000000
								CHANNELS 3 Zrotation Yrotation Xrotation
								JOINT HeadEnd
								{
									OFFSET 0.000000 11.655085 0.000000
									CHANNELS 3 Zrotation Yrotation Xrotation
									End Site
									{
										OFFSET 0.000000 0.000000 0.000000
									}
								}
							}
						}
					}
					JOINT RightShoulder
					{
						OFFSET -2.625389 11.175210 0.000000
						CHANNELS 3 Zrotation Yrotation Xrotation
						JOINT RightArm
						{
							OFFSET -0.000000 10.434715 -0.000000
							CHANNELS 3 Zrotation Yrotation Xrotation
							JOINT RightForeArm
							{
								OFFSET -0.000000 29.628420 0.000000
								CHANNELS 3 Zrotation Yrotation Xrotation
								JOINT RightHand
								{
									OFFSET -0.000000 22.857611 0.000000
									CHANNELS 3 Zrotation Yrotation Xrotation
									JOINT RightHandThumb1
									{
										OFFSET -2.867323 3.959563 2.944291
										CHANNELS 3 Zrotation Yrotation Xrotation
										JOINT RightHandThumb2
										{
											OFFSET 0.000000 3.350399 0.000000
											CHANNELS 3 Zrotation Yrotation Xrotation
											JOINT RightHandThumb3
											{
												OFFSET 0.000000 3.756509 -0.000000
												CHANNELS 3 Zrotation Yrotation Xrotation
												JOINT RightHandThumb4
												{
													OFFSET 0.000000 3.147345 0.000000
													CHANNELS 3 Zrotation Yrotation Xrotation
													End Site
													{
														OFFSET 0.000000 0.000000 0.000000
													}
												}
											}
										}
									}
									JOINT RightHandIndex1
									{
										OFFSET -0.086752 10.030893 2.345280
										CHANNELS 3 Zrotation Yrotation Xrotation
										JOINT RightHandIndex2
										{
											OFFSET -0.000000 4.061090 0.000000
											CHANNELS 3 Zrotation Yrotation Xrotation
											JOINT RightHandIndex3
											{
												OFFSET -0.000000 3.248873 0.000000
												CHANNELS 3 Zrotation Yrotation Xrotation
												JOINT RightHandIndex4
												{
													OFFSET 0.000000 2.639709 -0.000000
													CHANNELS 3 Zrotation Yrotation Xrotation
													End Site
													{
														OFFSET 0.000000 0.000000 0.000000
													}
												}
											}
										}
									}
									JOINT RightHandMiddle1
									{
										OFFSET 0.104102 9.502952 0.006768
										CHANNELS 3 Zrotation Yrotation Xrotation
										JOINT RightHandMiddle2
										{
											OFFSET 0.000000 4.568727 0.000000
											CHANNELS 3 Zrotation Yrotation Xrotation
											JOINT RightHandMiddle3
											{
												OFFSET 0.000000 3.654981 -0.000000
												CHANNELS 3 Zrotation Yrotation Xrotation
												JOINT RightHandMiddle4
												{
													OFFSET -0.000000 2.741236 -0.000000
													CHANNELS 3 Zrotation Yrotation Xrotation
													End Site
													{
														OFFSET 0.000000 0.000000 0.000000
													}
												}
											}
										}
									}
									JOINT RightHandRing1
									{
										OFFSET 0.086752 8.921708 -2.267442
										CHANNELS 3 Zrotation Yrotation Xrotation
										JOINT RightHandRing2
										{
											OFFSET -0.000000 4.061090 0.000000
											CHANNELS 3 Zrotation Yrotation Xrotation
											JOINT RightHandRing3
											{
												OFFSET 0.000000 3.654981 -0.000000
												CHANNELS 3 Zrotation Yrotation Xrotation
												JOINT RightHandRing4
												{
													OFFSET 0.000000 2.741236 -0.000000
													CHANNELS 3 Zrotation Yrotation Xrotation
													End Site
													{
														OFFSET 0.000000 0.000000 0.000000
													}
												}
											}
										}
									}
									JOINT RightHandPinky1
									{
										OFFSET -0.173504 7.976997 -4.467199
										CHANNELS 3 Zrotation Yrotation Xrotation
										JOINT RightHandPinky2
										{
											OFFSET 0.000000 3.350399 -0.000000
											CHANNELS 3 Zrotation Yrotation Xrotation
											JOINT RightHandPinky3
											{
												OFFSET -0.000000 2.842763 0.000000
												CHANNELS 3 Zrotation Yrotation Xrotation
												JOINT RightHandPinky4
												{
													OFFSET -0.000000 2.639709 0.000000
													CHANNELS 3 Zrotation Yrotation Xrotation
													End Site
													{
														OFFSET 0.000000 0.000000 0.000000
													}
												}
											}
										}
									}
									JOINT RightForeArmEnd
									{
										OFFSET 0.000000 0.000000 0.000000
										CHANNELS 3 Zrotation Yrotation Xrotation
										End Site
										{
											OFFSET 0.000000 0.000000 0.000000
										}
									}
								}
								JOINT RightArmEnd
								{
									OFFSET 0.000000 0.000000 0.000000
									CHANNELS 3 Zrotation Yrotation Xrotation
									End Site
									{
										OFFSET 0.000000 0.000000 0.000000
									}
								}
							}
						}
					}
					JOINT LeftShoulder
					{
						OFFSET 2.625389 11.175210 0.000000
						CHANNELS 3 Zrotation Yrotation Xrotation
						JOINT LeftArm
						{
							OFFSET 0.000000 10.813635 -0.000000
							CHANNELS 3 Zrotation Yrotation Xrotation
							JOINT LeftForeArm
							{
								OFFSET 0.000000 28.724781 0.000000
								CHANNELS 3 Zrotation Yrotation Xrotation
								JOINT LeftHand
								{
									OFFSET 0.644384 25.716167 -0.328871
									CHANNELS 3 Zrotation Yrotation Xrotation
									JOINT LeftHandThumb1
									{
										OFFSET 2.867323 3.959563 2.944291
										CHANNELS 3 Zrotation Yrotation Xrotation
										JOINT LeftHandThumb2
										{
											OFFSET 0.000000 3.350399 0.000000
											CHANNELS 3 Zrotation Yrotation Xrotation
											JOINT LeftHandThumb3
											{
												OFFSET -0.000000 3.756509 0.000000
												CHANNELS 3 Zrotation Yrotation Xrotation
												JOINT LeftHandThumb4
												{
													OFFSET -0.000000 3.100000 0.000000
													CHANNELS 3 Zrotation Yrotation Xrotation
													End Site
													{
														OFFSET 0.000000 0.000000 0.000000
													}
												}
											}
										}
									}
									JOINT LeftHandIndex1
									{
										OFFSET 0.086752 10.030893 2.345280
										CHANNELS 3 Zrotation Yrotation Xrotation
										JOINT LeftHandIndex2
										{
											OFFSET -0.000000 4.061090 -0.000000
											CHANNELS 3 Zrotation Yrotation Xrotation
											JOINT LeftHandIndex3
											{
												OFFSET 0.000000 3.248873 -0.000000
												CHANNELS 3 Zrotation Yrotation Xrotation
												JOINT LeftHandIndex4
												{
													OFFSET 0.000000 2.639709 -0.000000
													CHANNELS 3 Zrotation Yrotation Xrotation
													End Site
													{
														OFFSET 0.000000 0.000000 0.000000
													}
												}
											}
										}
									}
									JOINT LeftHandMiddle1
									{
										OFFSET -0.104102 9.502952 0.006768
										CHANNELS 3 Zrotation Yrotation Xrotation
										JOINT LeftHandMiddle2
										{
											OFFSET -0.000000 4.568727 -0.000000
											CHANNELS 3 Zrotation Yrotation Xrotation
											JOINT LeftHandMiddle3
											{
												OFFSET 0.000000 3.654981 0.000000
												CHANNELS 3 Zrotation Yrotation Xrotation
												JOINT LeftHandMiddle4
												{
													OFFSET 0.000000 2.741236 -0.000000
													CHANNELS 3 Zrotation Yrotation Xrotation
													End Site
													{
														OFFSET 0.000000 0.000000 0.000000
													}
												}
											}
										}
									}
									JOINT LeftHandRing1
									{
										OFFSET -0.086752 8.921708 -2.267442
										CHANNELS 3 Zrotation Yrotation Xrotation
										JOINT LeftHandRing2
										{
											OFFSET 0.000000 4.061090 0.000000
											CHANNELS 3 Zrotation Yrotation Xrotation
											JOINT LeftHandRing3
											{
												OFFSET 0.000000 3.654981 0.000000
												CHANNELS 3 Zrotation Yrotation Xrotation
												JOINT LeftHandRing4
												{
													OFFSET 0.000000 2.741236 0.000000
													CHANNELS 3 Zrotation Yrotation Xrotation
													End Site
													{
														OFFSET 0.000000 0.000000 0.000000
													}
												}
											}
										}
									}
									JOINT LeftHandPinky1
									{
										OFFSET 0.173504 7.976997 -4.467199
										CHANNELS 3 Zrotation Yrotation Xrotation
										JOINT LeftHandPinky2
										{
											OFFSET -0.000000 3.350399 -0.000000
											CHANNELS 3 Zrotation Yrotation Xrotation
											JOINT LeftHandPinky3
											{
												OFFSET 0.000000 2.842763 0.000000
												CHANNELS 3 Zrotation Yrotation Xrotation
												JOINT LeftHandPinky4
												{
													OFFSET -0.000000 2.639709 -0.000000
													CHANNELS 3 Zrotation Yrotation Xrotation
													End Site
													{
														OFFSET 0.000000 0.000000 0.000000
													}
												}
											}
										}
									}
									JOINT LeftForeArmEnd
									{
										OFFSET 0.000000 0.000000 0.000000
										CHANNELS 3 Zrotation Yrotation Xrotation
										End Site
										{
											OFFSET 0.000000 0.000000 0.000000
										}
									}
								}
								JOINT LeftArmEnd
								{
									OFFSET 0.000000 0.000000 0.000000
									CHANNELS 3 Zrotation Yrotation Xrotation
									End Site
									{
										OFFSET 0.000000 0.000000 0.000000
									}
								}
							}
						}
					}
				}
			}
		}
	}
	JOINT RightUpLeg
	{
		OFFSET -11.289943 0.000000 0.000000
		CHANNELS 3 Zrotation Yrotation Xrotation
		JOINT RightLeg
		{
			OFFSET 0.000000 -38.200325 0.000000
			CHANNELS 3 Zrotation Yrotation Xrotation
			JOINT RightFoot
			{
				OFFSET -0.000000 -39.900856 -0.000000
				CHANNELS 3 Zrotation Yrotation Xrotation
				JOINT RightToeBase
				{
					OFFSET 0.000000 0.000000 15.261641
					CHANNELS 3 Zrotation Yrotation Xrotation
					JOINT RightToeBaseEnd
					{
						OFFSET 0.000000 0.000000 7.370709
						CHANNELS 3 Zrotation Yrotation Xrotation
						End Site
						{
							OFFSET 0.000000 0.000000 0.000000
						}
					}
				}
				JOINT RightLegEnd
				{
					OFFSET 0.000000 0.000000 0.000000
					CHANNELS 3 Zrotation Yrotation Xrotation
					End Site
					{
						OFFSET 0.000000 0.000000 0.000000
					}
				}
			}
			JOINT RightUpLegEnd
			{
				OFFSET 0.000000 0.000000 0.000000
				CHANNELS 3 Zrotation Yrotation Xrotation
				End Site
				{
					OFFSET 0.000000 0.000000 0.000000
				}
			}
		}
	}
	JOINT LeftUpLeg
	{
		OFFSET 11.315661 -0.000000 0.000000
		CHANNELS 3 Zrotation Yrotation Xrotation
		JOINT LeftLeg
		{
			OFFSET -0.000000 -38.200325 -0.000000
			CHANNELS 3 Zrotation Yrotation Xrotation
			JOINT LeftFoot
			{
				OFFSET 0.000000 -39.900856 -0.000000
				CHANNELS 3 Zrotation Yrotation Xrotation
				JOINT LeftToeBase
				{
					OFFSET -0.000000 -0.000000 15.261641
					CHANNELS 3 Zrotation Yrotation Xrotation
					JOINT LeftToeBaseEnd
					{
						OFFSET 0.000000 -0.000000 7.539996
						CHANNELS 3 Zrotation Yrotation Xrotation
						End Site
						{
							OFFSET 0.000000 0.000000 0.000000
						}
					}
				}
				JOINT LeftLegEnd
				{
					OFFSET 0.000000 0.000000 0.000000
					CHANNELS 3 Zrotation Yrotation Xrotation
					End Site
					{
						OFFSET 0.000000 0.000000 0.000000
					}
				}
			}
			JOINT LeftUpLegEnd
			{
				OFFSET 0.000000 0.000000 0.000000
				CHANNELS 3 Zrotation Yrotation Xrotation
				End Site
				{
					OFFSET 0.000000 0.000000 0.000000
				}
			}
		}
	}
}
MOTION
Frames: 4
Frame Time: 0.016667
0.582027 88.669495 3.044386 0.083549 -1.552899 -10.466465 1.015942 0.166784 6.977661 -1.339034 0.481776 3.052942 0.326968 -0.582158 4.912042 -1.626487 0.294680 5.676831 0.549910 0.215173 6.797239 0.239629 0.070149 -2.254186 -0.231931 -1.069212 -20.860792 0.000000 0.000000 0.000000 91.419792 -0.419173 7.700148 70.899193 -12.657475 -2.746703 -0.878289 20.655529 80.647858 -10.122190 10.723279 -0.412981 16.986769 31.054249 64.906288 -5.352564 -6.645667 -11.975244 -3.893692 -4.368162 -8.088389 0.000000 0.000000 0.000000 -8.840535 -7.195179 9.882588 0.354942 0.597958 0.296937 -0.140146 0.167549 0.407343 0.000000 0.000000 0.000000 -8.159276 -1.956432 5.089085 -0.845323 0.560444 0.078059 -0.018234 0.048087 0.094420 0.000000 0.000000 0.000000 -5.977967 5.554529 -1.155854 -0.543986 -1.061225 -0.252650 -0.500589 -0.065669 -0.142968 0.000000 0.000000 0.000000 -5.514598 13.684238 -8.140824 0.008499 -2.107719 -0.522060 -0.072774 -0.149049 -0.398580 0.000000 0.000000 0.000000 0.000000 0.000000 0.000000 0.000000 0.000000 0.000000 -89.359398 0.544618 2.377797 -73.090691 5.559449 -10.796089 0.204588 -13.438495 92.474915 7.944544 -6.909820 2.542502 -15.611243 -31.587250 66.410057 3.648380 3.844183 -7.327418 2.506650 2.668655 -5.162360 0.000000 0.000000 0.000000 12.903112 -11.245779 18.661615 -0.507583 0.638470 -0.024641 -0.568184 0.173692 -0.124718 0.000000 0.000000 0.000000 12.104113 -5.721384 11.683709 -0.637739 0.563158 -0.062913 -1.048753 0.059794 -0.051209 0.000000 0.000000 0.000000 8.080278 3.001761 2.597799 -2.349611 -1.079389 0.234091 -2.500818 -0.075809 0.183187 0.000000 0.000000 0.000000 1.944629 13.092721 -6.855232 -4.795898 -2.123498 1.031483 -4.285342 -0.070790 0.954241 0.000000 0.000000 0.000000 0.000000 0.000000 0.000000 0.000000 0.000000 0.000000 -1.064703 -8.741405 14.382019 -0.060894 -0.645941 5.186482 -2.698335 -7.187661 17.073622 -0.843327 0.839673 -18.419794 0.000000 0.000000 0.000000 0.000000 0.000000 0.000000 0.000000 0.000000 0.000000 -1.695498 -5.827160 9.218643 0.074031 0.324270 11.121472 3.882690 -0.872021 16.020304 0.174224 -0.390250 -21.014948 0.000000 0.000000 0.000000 0.000000 0.000000 0.000000 0.000000 0.000000 0.000000 
0.584997 88.667809 3.045655 0.091991 -1.533741 -10.492154 1.027340 0.163942 7.000450 -1.354120 0.483455 3.037889 0.328969 -0.575023 4.949951 -1.625556 0.294945 5.662660 0.506043 0.262890 6.778411 0.250170 0.098821 -2.253048 -0.242623 -1.078354 -20.834639 0.000000 0.000000 0.000000 91.424225 -0.420939 7.730774 70.911018 -12.603222 -2.743528 -0.881500 20.685783 80.631256 -9.639802 11.254993 -0.336124 17.027201 31.038666 64.865555 -5.405814 -6.719369 -12.103011 -3.931840 -4.416984 -8.176632 0.000000 0.000000 0.000000 -8.416851 -7.266669 9.746997 0.416766 0.597098 0.311574 -0.081145 0.166984 0.421663 0.000000 0.000000 0.000000 -7.729916 -2.028399 5.019096 -0.786563 0.560704 0.082346 0.051351 0.048186 0.098698 0.000000 0.000000 0.000000 -5.474361 5.474004 -1.161194 -0.440098 -1.062339 -0.256403 -0.403791 -0.066113 -0.145288 0.000000 0.000000 0.000000 -4.978560 13.607718 -8.096653 0.151185 -2.112029 -0.521319 0.058616 -0.152055 -0.396573 0.000000 0.000000 0.000000 0.000000 0.000000 0.000000 0.000000 0.000000 0.000000 -89.344879 0.541992 2.365397 -73.110207 5.338543 -10.802123 0.193865 -13.493497 92.455948 7.892872 -7.265624 2.550876 -15.644733 -31.572353 66.368790 3.700330 3.915148 -7.444826 2.544533 2.717421 -5.245972 0.000000 0.000000 0.000000 12.587020 -11.188416 18.501940 -0.489897 0.637599 -0.037268 -0.553593 0.173449 -0.137331 0.000000 0.000000 0.000000 11.776238 -5.664300 11.580668 -0.621558 0.563509 -0.067664 -1.027644 0.059991 -0.055234 0.000000 0.000000 0.000000 7.706994 3.063399 2.566247 -2.367499 -1.079896 0.241700 -2.513729 -0.075397 0.188391 0.000000 0.000000 0.000000 1.578277 13.159234 -6.822303 -4.848445 -2.123939 1.050848 -4.331406 -0.070584 0.971356 0.000000 0.000000 0.000000 0.000000 0.000000 0.000000 0.000000 0.000000 0.000000 -1.078035 -8.753709 14.382481 -0.061146 -0.645284 5.236389 -2.687733 -7.207023 17.045885 -0.842169 0.841827 -18.412994 0.000000 0.000000 0.000000 0.000000 0.000000 0.000000 0.000000 0.000000 0.000000 -1.693182 -5.807637 9.219697 0.073872 0.323921 11.166114 3.883806 -0.879637 16.014791 0.173102 -0.388803 -21.030697 0.000000 0.000000 0.000000 0.000000 0.000000 0.000000 0.000000 0.000000 0.000000 
0.587982 88.666855 3.046757 0.098222 -1.516414 -10.516521 1.038489 0.160836 7.021927 -1.369514 0.485320 3.023562 0.331310 -0.570258 4.982319 -1.623868 0.293931 5.645589 0.459293 0.307746 6.753710 0.260304 0.124488 -2.254426 -0.253590 -1.088301 -20.812677 0.000000 0.000000 0.000000 91.422569 -0.420264 7.763063 70.923332 -12.539589 -2.738449 -0.884619 20.716635 80.605560 -9.203688 11.744946 -0.243460 17.066702 31.023941 64.826553 -5.456314 -6.792051 -12.226089 -3.968563 -4.464866 -8.262512 0.000000 0.000000 0.000000 -8.026702 -7.334091 9.632205 0.479403 0.596519 0.326558 -0.020747 0.166597 0.436439 0.000000 0.000000 0.000000 -7.334720 -2.095306 4.965145 -0.725996 0.561061 0.086778 0.121167 0.048292 0.103107 0.000000 0.000000 0.000000 -5.010368 5.400375 -1.155428 -0.337565 -1.063728 -0.260552 -0.307859 -0.066662 -0.148098 0.000000 0.000000 0.000000 -4.480278 13.538908 -8.042916 0.291039 -2.116958 -0.522262 0.187422 -0.155416 -0.396209 0.000000 0.000000 0.000000 0.000000 0.000000 0.000000 0.000000 0.000000 0.000000 -89.325211 0.538778 2.357456 -73.121559 5.129498 -10.802704 0.187026 -13.542663 92.453331 7.849911 -7.561616 2.594204 -15.683408 -31.555323 66.321259 3.759345 3.996583 -7.580601 2.587613 2.773039 -5.342057 0.000000 0.000000 0.000000 12.237424 -11.125446 18.343035 -0.472208 0.636610 -0.051087 -0.539003 0.173060 -0.151033 0.000000 0.000000 0.000000 11.415897 -5.601558 11.478927 -0.606725 0.563725 -0.072924 -1.007652 0.060071 -0.059794 0.000000 0.000000 0.000000 7.302249 3.130979 2.535999 -2.390699 -1.080215 0.250508 -2.532343 -0.074820 0.194455 0.000000 0.000000 0.000000 1.188801 13.229602 -6.785356 -4.907321 -2.123807 1.073868 -4.385113 -0.069898 0.991476 0.000000 0.000000 0.000000 0.000000 0.000000 0.000000 0.000000 0.000000 0.000000 -1.089824 -8.764563 14.387769 -0.061401 -0.644697 5.279349 -2.676135 -7.224429 17.021669 -0.840804 0.844130 -18.405807 0.000000 0.000000 0.000000 0.000000 0.000000 0.000000 0.000000 0.000000 0.000000 -1.691168 -5.793627 9.219082 0.073659 0.323542 11.207057 3.886503 -0.891369 16.010374 0.172709 -0.387573 -21.044323 0.000000 0.000000 0.000000 0.000000 0.000000 0.000000 0.000000 0.000000 0.000000 
0.590863 88.666412 3.047765 0.101803 -1.502043 -10.539463 1.049700 0.157418 7.041438 -1.385042 0.487340 3.010136 0.334867 -0.568250 5.009485 -1.622097 0.292028 5.626187 0.408700 0.351395 6.726187 0.270314 0.148825 -2.257026 -0.264980 -1.098891 -20.793703 0.000000 0.000000 0.000000 91.415230 -0.417396 7.796292 70.936806 -12.465590 -2.729626 -0.887445 20.748856 80.570427 -8.810865 12.203883 -0.144653 17.104818 31.010170 64.789543 -5.503635 -6.863037 -12.343313 -4.003480 -4.511337 -8.345173 0.000000 0.000000 0.000000 -7.673254 -7.397007 9.536277 0.541478 0.596094 0.342239 0.039416 0.166252 0.451909 0.000000 0.000000 0.000000 -6.976152 -2.156646 4.924468 -0.665698 0.561472 0.091484 0.189716 0.048383 0.107756 0.000000 0.000000 0.000000 -4.587124 5.333898 -1.142192 -0.237708 -1.065305 -0.265186 -0.214211 -0.067270 -0.151443 0.000000 0.000000 0.000000 -4.019185 13.477636 -7.984256 0.427146 -2.122365 -0.524989 0.312640 -0.159017 -0.397485 0.000000 0.000000 0.000000 0.000000 0.000000 0.000000 0.000000 0.000000 0.000000 -89.302200 0.535552 2.353725 -73.122162 4.931695 -10.791625 0.184230 -13.585097 92.464523 7.805938 -7.820601 2.659002 -15.728247 -31.535809 66.266533 3.826681 4.090194 -7.737683 2.636785 2.836724 -5.452540 0.000000 0.000000 0.000000 11.844183 -11.055037 18.177828 -0.455807 0.635445 -0.066315 -0.525626 0.172451 -0.165965 0.000000 0.000000 0.000000 11.013121 -5.531273 11.372607 -0.594620 0.563770 -0.078782 -0.990453 0.060012 -0.064940 0.000000 0.000000 0.000000 6.854415 3.206423 2.502578 -2.421294 -1.080294 0.260555 -2.558778 -0.074046 0.201459 0.000000 0.000000 0.000000 0.763991 13.305742 -6.747824 -4.975347 -2.123009 1.100670 -4.448884 -0.068639 1.014699 0.000000 0.000000 0.000000 0.000000 0.000000 0.000000 0.000000 0.000000 0.000000 -1.099453 -8.774108 14.397353 -0.061668 -0.644194 5.315712 -2.663797 -7.239927 17.001690 -0.839359 0.846608 -18.398312 0.000000 0.000000 0.000000 0.000000 0.000000 0.000000 0.000000 0.000000 0.000000 -1.689059 -5.785019 9.217909 0.073409 0.323056 11.244287 3.890326 -0.906293 16.006079 0.172884 -0.386405 -21.055302 0.000000 0.000000 0.000000 0.000000 0.000000 0.000000 0.000000 0.000000 0.000000 
